Coordinates
version=1
nRows=6
nColumns=38
inDegrees=yes

Units are S.I. units (second, meters, Newtons, ...)
Angles are in degrees.

endheader
time	pelvis_tilt	pelvis_list	pelvis_rotation	pelvis_tx	pelvis_ty	pelvis_tz	hip_flexion_r	hip_adduction_r	hip_rotation_r	knee_angle_r	ankle_angle_r	subtalar_angle_r	mtp_angle_r	hip_flexion_l	hip_adduction_l	hip_rotation_l	knee_angle_l	ankle_angle_l	subtalar_angle_l	mtp_angle_l	lumbar_extension	lumbar_bending	lumbar_rotation	arm_flex_r	arm_add_r	arm_rot_r	elbow_flex_r	pro_sup_r	wrist_flex_r	wrist_dev_r	arm_flex_l	arm_add_l	arm_rot_l	elbow_flex_l	pro_sup_l	wrist_flex_l	wrist_dev_l
      3.46000000	     51.33444022	     -9.95735030	      9.32712294	      1.79914906	      0.85937802	     -0.06751483	    -20.43238884	     25.88862564	     -3.60158630	    -81.68364903	    -20.40773047	     -7.78116850	      0.00000000	    -32.87176390	    -23.34950739	   -380.46725473	    -56.31791392	     47.57649326	     39.85991128	      0.00000000	    -78.34925841	      8.29840116	      5.52687909	     95.59940021	     -5.88919909	      3.97813746	    -48.80981013	     86.51662706	      0.00000000	      0.00000000	     89.38007625	    -57.05585077	    147.79543890	     88.84307054	     85.94366927	      0.00000000	      0.00000000
      3.47000000	     51.39047092	    -12.20559173	     10.49024551	      1.81348601	      0.85819330	     -0.05192763	    -53.92295584	     40.02710725	     35.86501774	    -62.51161687	     22.49584596	    -32.55089088	      0.00000000	    -33.91733129	    -28.41785177	   -382.00950721	    -56.50381134	     48.67226898	     42.51121836	      0.00000000	    -77.95290885	      8.58815148	      6.39822525	     94.27585461	     -3.37046661	      4.08487631	    -49.60472664	     86.51662706	      0.00000000	      0.00000000	     93.95549929	    -59.71026700	    151.07071933	     89.22654086	     85.94366927	      0.00000000	      0.00000000
      3.48000000	     51.12053153	    -12.13380428	     10.40672482	      1.82462353	      0.85815230	     -0.05199155	    -51.31076664	     40.25864486	     33.92268262	    -64.78997698	     22.74442161	    -33.25541580	      0.00000000	    -34.83925531	    -28.25761408	   -382.49679986	    -55.92014908	     49.20055390	     42.77678651	      0.00000000	    -77.83933260	      8.55137494	      5.99608483	     94.30158361	     -3.20284285	      3.56970937	    -50.55370588	     86.51662706	      0.00000000	      0.00000000	     95.11329761	    -59.68369422	    151.02049865	     88.74813137	     85.94366927	      0.00000000	      0.00000000
      3.49000000	     50.93934920	    -11.86258974	     10.24417987	      1.83494563	      0.85814039	     -0.05196950	    -48.61095995	     40.19752572	     31.86031058	    -67.01953935	     23.41004274	    -33.66445068	      0.00000000	    -35.77349989	    -27.79520247	   -382.79612644	    -55.34207762	     49.73351873	     42.68524581	      0.00000000	    -77.87765206	      8.20253451	      5.41193639	     94.64318844	     -3.91061752	      1.14868647	    -51.41116265	     86.51662706	      0.00000000	      0.00000000	     97.96323356	    -58.93121617	    153.15380018	     88.83053763	     85.94366927	      0.00000000	      0.00000000
      3.50000000	     50.73212852	    -11.72032103	     10.13778497	      1.84542011	      0.85833699	     -0.05185337	    -45.93405326	     40.20284744	     30.05683334	    -68.96171760	     24.10494066	    -33.60195707	      0.00000000	    -36.71927146	    -27.52774416	   -383.18614156	    -54.70385056	     50.16853083	     42.75825928	      0.00000000	    -77.88062976	      8.05797631	      4.97031953	     94.86157192	     -4.06465070	      0.02468672	    -52.48844911	     86.51662706	      0.00000000	      0.00000000	     99.87406287	    -58.46140870	    154.03989005	     88.51165967	     85.94366927	      0.00000000	      0.00000000
      3.51000000	     50.51308278	    -11.54692011	      9.93843580	      1.85589328	      0.85858420	     -0.05141586	    -43.33440078	     40.03458710	     28.43317729	    -70.66745801	     25.71798303	    -32.21357814	      0.00000000	    -37.71874127	    -27.18939373	   -383.67377742	    -53.99248587	     50.59402270	     42.94169361	      0.00000000	    -77.85484528	      7.72574256	      4.39522598	     94.95439098	     -4.29571032	     -1.36417479	    -53.40559949	     86.51662706	      0.00000000	      0.00000000	    102.43016228	    -57.82978675	    155.75545111	     88.46540618	     85.94366927	      0.00000000	      0.00000000
